<svg xmlns="http://www.w3.org/2000/svg" width="265" height="265" viewBox="0 0 265 265">
  <g id="call-center" transform="translate(0.5 0.5)">
    <path id="Path_1601" data-name="Path 1601" d="M240.9,223.538l-32.252-7.443v-8.385a34.286,34.286,0,0,0,8.167-9.516h4.607a21.315,21.315,0,0,0,21.29-21.29,21.084,21.084,0,0,0-4.258-12.643V147.1a51.1,51.1,0,1,0-102.193,0V164.26A21.093,21.093,0,0,0,132,176.9a21.315,21.315,0,0,0,21.29,21.29H157.9a34.217,34.217,0,0,0,8.167,9.516v8.385l-32.252,7.443a29.661,29.661,0,0,0-6.071,2.166V202.451a12.791,12.791,0,0,0-12.774-12.774H12.774A12.791,12.791,0,0,0,0,202.451V279.1a12.791,12.791,0,0,0,12.774,12.774H46.839v8.516H38.323V308.9H264V252.582a29.668,29.668,0,0,0-23.1-29.043Zm-71.541.541,10.381,7.784-10.5,6.3-2.258-13.537Zm13.4,33.728h9.2l3.547,42.581h-16.3ZM192.8,249.29H181.906l-2.445-7.333,7.894-4.734,7.89,4.734Zm2.177-17.427,10.381-7.784,3,.694-2.7,13.5Zm26.442-42.186H220.3a33.865,33.865,0,0,0,1.121-8.516V164.129a12.774,12.774,0,1,1,0,25.548Zm-34.064-85.161A42.628,42.628,0,0,1,229.936,147.1v10.321a21.075,21.075,0,0,0-8.516-1.8V147.1H212.9v2.376a24.963,24.963,0,0,1-10.279,5.356c.166-.162.349-.3.516-.464l-6.021-6.021a24.914,24.914,0,0,1-11.527,6.485c.166-.162.349-.3.516-.464l-6.021-6.021a24.988,24.988,0,0,1-17.548,7.269h-.732V147.1h-8.516v8.516a21.075,21.075,0,0,0-8.516,1.8V147.1a42.628,42.628,0,0,1,42.581-42.581Zm-34.064,85.161a12.774,12.774,0,1,1,0-25.548v17.032a33.865,33.865,0,0,0,1.121,8.516Zm8.516-8.516V164.129h.732a33.279,33.279,0,0,0,12.042-2.3v2.3h4.99a33.279,33.279,0,0,0,12.042-2.3v2.3h4.99a33.512,33.512,0,0,0,16.3-4.306v21.338a25.423,25.423,0,0,1-1.491,8.516H187.355v8.516h18.991a25.513,25.513,0,0,1-44.539-17.032Zm25.548,34.064a33.831,33.831,0,0,0,12.774-2.507v4.636l-12.774,9.581-12.774-9.581v-4.636A33.83,33.83,0,0,0,187.355,215.226Zm-51.629,16.61,22.943-5.291,4.223,25.355,9.092-5.454,2.541,7.622-3.861,46.319H149.033V253.548h-8.516v46.839h-21.29v-9.3a12.757,12.757,0,0,0,8.516-11.99V235.6a21.288,21.288,0,0,1,7.984-3.761ZM80.9,291.871H110.71v8.516H80.9Zm-68.129-8.516A4.261,4.261,0,0,1,8.516,279.1V202.451a4.261,4.261,0,0,1,4.258-4.258H114.968a4.261,4.261,0,0,1,4.258,4.258V279.1a4.261,4.261,0,0,1-4.258,4.258H80.9v-8.516a17.032,17.032,0,1,0-34.065,0v8.516Zm42.581-8.516a8.516,8.516,0,0,1,17.032,0v25.548H55.355Zm200.129,25.548h-21.29V253.548h-8.516v46.839H204.046l-3.857-46.319,2.537-7.622,8.909,5.348,5.019-25.106,22.33,5.152a21.191,21.191,0,0,1,16.5,20.741Zm0,0" transform="translate(0 -44.903)" stroke="rgba(255,255,255,0.5)" stroke-width="1"/>
    <path id="Path_1602" data-name="Path 1602" d="M132.645,102.006a12.756,12.756,0,0,0-8.732-12.117L107.1,84.284V78.728a21.2,21.2,0,0,0,8.516-16.922V53.29a21.29,21.29,0,1,0-42.581,0v8.516a21.193,21.193,0,0,0,8.516,16.922v5.555L64.732,89.889A12.76,12.76,0,0,0,56,102.006v23.671h76.645ZM81.548,53.29a12.774,12.774,0,1,1,25.548,0v8.516a12.774,12.774,0,1,1-25.548,0Zm42.581,63.871H64.516V102.006a4.249,4.249,0,0,1,2.913-4.04l22.635-7.541V82.666a21.28,21.28,0,0,0,8.516,0v7.759l22.635,7.541a4.255,4.255,0,0,1,2.913,4.04Zm0,0" transform="translate(-26.193 -14.968)" stroke="rgba(255,255,255,0.5)" stroke-width="1"/>
    <path id="Path_1603" data-name="Path 1603" d="M68.129,136.258A68.129,68.129,0,1,0,0,68.129,68.21,68.21,0,0,0,68.129,136.258Zm0-127.742A59.613,59.613,0,1,1,8.516,68.129,59.677,59.677,0,0,1,68.129,8.516Zm0,0" stroke="rgba(255,255,255,0.5)" stroke-width="1"/>
    <path id="Path_1604" data-name="Path 1604" d="M296,48h8.516v8.516H296Zm0,0" transform="translate(-138.452 -22.452)" stroke="rgba(255,255,255,0.5)" stroke-width="1"/>
    <path id="Path_1605" data-name="Path 1605" d="M344,48h8.516v8.516H344Zm0,0" transform="translate(-160.903 -22.452)" stroke="rgba(255,255,255,0.5)" stroke-width="1"/>
    <path id="Path_1606" data-name="Path 1606" d="M392,48h8.516v8.516H392Zm0,0" transform="translate(-183.355 -22.452)" stroke="rgba(255,255,255,0.5)" stroke-width="1"/>
  </g>
</svg>
