<?xml version="1.0" encoding="utf-8"?>
<!-- Generator: Adobe Illustrator 24.1.0, SVG Export Plug-In . SVG Version: 6.00 Build 0)  -->
<svg version="1.1" id="Capa_1" xmlns:svgjs="http://svgjs.com/svgjs"
	 xmlns="http://www.w3.org/2000/svg" xmlns:xlink="http://www.w3.org/1999/xlink" x="0px" y="0px" viewBox="0 0 512 512"
	 style="enable-background:new 0 0 512 512;" xml:space="preserve">
<style type="text/css">
	.st0{fill:#132C54;}
</style>
<g>
	<g>
		<path class="st0" d="M478.2,232.6c-0.7-27.3-6.2-53.8-16.5-78.8c3.6-2.4,6.3-5.9,7.7-10c1.8-5.2,1.4-11-1.2-15.8
			c-15.8-30.2-37.5-56.3-64.5-77.3c-3.3-2.5-8-2-10.5,1.3c-2.5,3.3-2,8,1.3,10.5c25.3,19.8,45.6,44.1,60.4,72.5
			c0.7,1.3,0.8,2.7,0.3,4c-0.5,1.3-1.4,2.4-2.7,3l-35.3,15.9c-2.4,1.1-5.3,0.1-6.6-2.2C380.2,99,321.3,63.8,257.1,63.8
			S134,99,103.5,155.6c-1.3,2.3-4.1,3.3-6.6,2.2l-35.3-15.9c-1.3-0.6-2.3-1.6-2.7-3c-0.5-1.3-0.4-2.8,0.3-4
			C97.8,60.9,173.7,15,257.1,15c39,0,77.5,10.3,111.4,29.9c3.6,2.1,8.2,0.8,10.2-2.7c2.1-3.6,0.8-8.2-2.7-10.2
			C339.8,11,298.7,0,257.1,0c-43.5,0-86.3,12-123.6,34.7C96.3,57.3,66,89.5,45.9,128c-2.5,4.9-3,10.6-1.2,15.8
			c1.4,4.1,4.2,7.6,7.7,10c-10.2,24.7-15.7,50.8-16.5,77.8c-13.7,5.1-23.5,18.4-23.5,33.9v61.6c0,4.1,3.3,7.5,7.5,7.5
			s7.5-3.3,7.5-7.5v-61.6c0-11.7,9.5-21.2,21.2-21.2h19.5c11.7,0,21.2,9.5,21.2,21.2v108.5c0,11.7-9.5,21.2-21.2,21.2H48.6
			c-11.7,0-21.2-9.5-21.2-21.2V360c0-4.1-3.3-7.5-7.5-7.5s-7.5,3.3-7.5,7.5v14.1c0,19.9,16.2,36.1,36.1,36.1h19.5
			c19.9,0,36.1-16.2,36.1-36.1V265.6c0-15.4-9.7-28.6-23.3-33.8c0.7-20.5,4.9-40.4,12.6-59.3c8.9,2.6,18.7-1.4,23.2-9.7
			c27.9-51.8,81.6-83.9,140.4-83.9s112.5,32.2,140.4,83.9c3.6,6.7,10.5,10.5,17.7,10.5c1.8,0,3.7-0.3,5.5-0.8
			c7.5,18.7,11.7,38.3,12.5,58.6c-14.7,4.6-25.5,18.3-25.5,34.5v108.5c0,13.8,7.8,25.9,19.3,31.9c-10.3,23.2-32,39.6-57.2,43.1
			c-2.5-4.3-5.9-8.1-10.1-10.9c-3.4-2.3-8.1-1.4-10.4,2c-2.3,3.4-1.4,8.1,2,10.4c5,3.4,7.9,8.9,7.9,14.9V479c0,9.9-8.1,18-18,18
			h-36.5c-9.9,0-18-8.1-18-18v-13.5c0-9.9,8.1-18,18-18H320c4.1,0,7.5-3.3,7.5-7.5s-3.3-7.5-7.5-7.5h-15.3c-18.2,0-33,14.8-33,33
			V479c0,18.2,14.8,33,33,33h36.5c12.7,0,23.7-7.2,29.2-17.8c24.2-2.2,46.8-11.6,65.6-27.4c18.2-15.4,31.2-35.4,37.6-58.1
			c14.9-4.5,25.8-18.3,25.8-34.6V265.6C499.5,250.9,490.7,238.3,478.2,232.6L478.2,232.6z M79.8,166.5
			c-8.1,20.1-12.7,41.2-13.7,62.9h-15c1-24,6-47.2,14.9-69.1L79.8,166.5z M448.1,229.4c-1-21.7-5.6-42.8-13.7-62.9l13.8-6.2
			c9,22,14,45.2,14.9,69.1H448.1z M374.2,478.8v-13.2c0-0.7,0-1.3-0.1-1.9c30-5,55.7-25.3,67.4-53.5c0.8,0,1.6,0.1,2.3,0.1h13.6
			C444.8,446.5,412.3,473.3,374.2,478.8z M484.5,374.1c0,11.7-9.5,21.2-21.2,21.2h-19.5c-11.7,0-21.2-9.5-21.2-21.2V265.6
			c0-11.7,9.5-21.2,21.2-21.2h19.5c11.7,0,21.2,9.5,21.2,21.2V374.1z"/>
		<g>
			<g>
				<path class="st0" d="M270.3,349.1c-0.9,0-1.9-0.2-2.8-0.5c-3.9-1.5-5.7-5.9-4.2-9.7l31-77.9c1.5-3.8,5.9-5.7,9.7-4.2
					c3.9,1.5,5.7,5.9,4.2,9.7l-31,77.9C276.1,347.3,273.3,349.1,270.3,349.1L270.3,349.1z"/>
			</g>
		</g>
		<g>
			<g>
				<path class="st0" d="M342.6,349.1c-1,0-2-0.2-3-0.6c-3.8-1.7-5.5-6.1-3.8-9.9l29.6-67.4H334c-4.1,0-7.5-3.4-7.5-7.5
					s3.4-7.5,7.5-7.5h42.9c2.5,0,4.9,1.3,6.3,3.4s1.6,4.8,0.6,7.1l-34.3,77.9C348.2,347.4,345.5,349.1,342.6,349.1z"/>
			</g>
		</g>
		<g>
			<g>
				<path class="st0" d="M231.3,349.1C231.3,349.1,231.3,349.1,231.3,349.1c-4.2,0-7.5-3.4-7.5-7.6c0-4.7,0.1-10,0.1-15.4h-31.4
					c-2.7,0-5.1-1.4-6.5-3.7s-1.4-5.1-0.1-7.4c4.4-7.9,26.5-47.8,30.9-53.3c3.7-4.6,8.8-6.4,13.5-5c4.8,1.5,8.1,6.1,8.6,11.8
					c0.2,2.8,0.2,23.6,0.1,42.6h2.4c4.1,0,7.5,3.4,7.5,7.5s-3.4,7.5-7.5,7.5h-2.5c-0.1,7-0.1,12.7-0.1,15.6
					C238.8,345.8,235.4,349.1,231.3,349.1L231.3,349.1z M205.3,311.1H224c0.1-12.8,0.1-25.2,0.1-33.1
					C219.6,285.6,212.5,298.1,205.3,311.1L205.3,311.1z"/>
			</g>
		</g>
		<g>
			<g>
				<path class="st0" d="M153.9,349.9c-15,0-16.1-0.4-17.1-0.7c-2.5-0.8-4.4-2.7-5.1-5.2c-1.3-4.2,0.5-6.6,5.4-13
					c4-5.2,11.3-14.8,23.7-32.5c3.7-5.2,6-9.9,7-14l0.3-2.1c-0.2-6.7-5.7-12-12.4-12c-5.9,0-11.1,4.2-12.2,10
					c-0.8,4.1-4.7,6.7-8.8,5.9c-4.1-0.8-6.7-4.7-5.9-8.8c2.5-12.8,13.8-22.1,26.9-22.1c15.1,0,27.4,12.3,27.4,27.4
					c0,0.3,0,0.6-0.1,0.9l-0.4,3c0,0.3-0.1,0.5-0.1,0.7c-1.4,6-4.6,12.5-9.4,19.5c-9.2,13.2-15.7,21.9-20.1,27.8
					c7.4,0,16.9-0.1,25.8-0.2c4.1,0,7.5,3.3,7.6,7.4c0.1,4.1-3.3,7.5-7.4,7.6C167.9,349.8,159.8,349.9,153.9,349.9L153.9,349.9z"/>
			</g>
		</g>
	</g>
</g>
</svg>
