<?xml version="1.0" encoding="utf-8"?>
<!-- Generator: Adobe Illustrator 24.1.0, SVG Export Plug-In . SVG Version: 6.00 Build 0)  -->
<svg version="1.1" id="Capa_1" xmlns:svgjs="http://svgjs.com/svgjs"
	 xmlns="http://www.w3.org/2000/svg" xmlns:xlink="http://www.w3.org/1999/xlink" x="0px" y="0px" viewBox="0 0 512 512"
	 style="enable-background:new 0 0 512 512;" xml:space="preserve">
<style type="text/css">
	.st0{fill:#132C54;}
</style>
<g>
	<path class="st0" d="M212.1,248.3c5.2-2.5,8.3-9.3,8.3-17.8c0-14.2-9.6-19.2-22.6-19.2c-18.1,0-23.4,11-23.4,18.6c0,4.5,1,6,7.2,6
		c5.1,0,6.6-2.1,6.6-5.4c0-4.3,2.6-7.2,9.5-7.2c5.8,0,9.4,2.4,9.4,9.4c0,9.2-4.5,10.5-9.8,10.5c-3.1,0-4.2,2.8-4.2,5.5
		c0,2.8,1.1,5.5,4.2,5.5c6.8,0,11.8,2.3,11.8,10.2v2c0,8.1-3.4,11.6-11.5,11.6c-6.9,0-11.1-3-11.1-7.8c0-3.4-1.5-4.9-7.2-4.9
		c-4.8,0-6.6,1.2-6.6,5.5c0,8.7,7.1,19.5,24.6,19.5c14.1,0,25.7-6.5,25.7-23.8v-2C223,255.6,218.4,250.8,212.1,248.3z"/>
	<path class="st0" d="M256.7,223.6c5.9,0,10.9,2.9,10.9,7.9c0,4.2,3.4,5.2,7.3,5.2c4.4,0,6.5-1.4,6.5-5.8c0-9-7.3-19.6-24.4-19.6
		c-14.6,0-25.8,6.6-25.8,24.5v29.9c0,17.9,11,24.5,25.2,24.5s25-6.6,25-24.5v-1.5c0-16.9-10.1-22.2-22.2-22.2
		c-5.6,0-10.7,1.3-14.2,5.5v-11.7C245.1,227.5,249.5,223.6,256.7,223.6z M256.3,253c7.1,0,11.2,3.3,11.2,12.2v1.4
		c0,8.5-4.2,12.3-11.1,12.3c-7.1,0-11.3-3.9-11.3-12.3v-2.4C245.1,256.1,249.6,253,256.3,253z"/>
	<path class="st0" d="M340.2,235.9c0-17.9-11-24.5-25.2-24.5s-25,6.6-25,24.5v29.9c0,17.9,10.9,24.5,25,24.5s25.2-6.6,25.2-24.5
		V235.9z M326.3,265.8c0,8.5-4.3,12.3-11.2,12.3c-7.1,0-11.1-3.9-11.1-12.3v-29.9c0-8.5,4.1-12.3,11.1-12.3c7,0,11.2,3.9,11.2,12.3
		V265.8z"/>
	<path class="st0" d="M512,255.6c-0.1-61.6-22.4-121.1-62.8-167.5c-2.7-3.1-7.5-3.5-10.6-0.7s-3.5,7.5-0.7,10.6
		c26.1,30,44.1,65.7,52.9,103.8c-13-15.7-31.7-30-55.7-42.3c-18-9.2-38.1-16.8-59.8-22.8c-6-21.7-13.6-41.9-22.8-59.8
		c-12.2-24-26.6-42.7-42.3-55.7c38,8.8,73.6,26.7,103.4,52.6c3.1,2.7,7.9,2.4,10.6-0.8c2.7-3.1,2.4-7.9-0.8-10.6
		C377,22.2,317.5,0,256,0C187.6,0,123.3,26.6,75,75S0,187.6,0,256v0.4c0.1,61.6,22.4,121,62.7,167.4c1.5,1.7,3.6,2.6,5.7,2.6
		c1.7,0,3.5-0.6,4.9-1.8c3.1-2.7,3.5-7.5,0.7-10.6C48,384.1,30,348.4,21.2,310.2c13,15.7,31.7,30,55.7,42.3
		c18,9.2,38.1,16.8,59.8,22.8c6,21.7,13.6,41.9,22.8,59.8c12.2,24,26.6,42.7,42.3,55.7C163.6,482,127.9,464,98,438
		c-3.1-2.7-7.9-2.4-10.6,0.7c-2.7,3.1-2.4,7.9,0.7,10.6c46.4,40.4,105.9,62.6,167.4,62.7h0.4c68.4,0,132.7-26.6,181-75
		s75-112.6,75-181C512,255.9,512,255.7,512,255.6z M85.6,85.6C118.1,53.1,158.3,31,202,21c-16.3,13.4-31.1,32.9-43.6,57.8L150.2,54
		c-1.3-3.9-5.6-6.1-9.5-4.7s-6,5.6-4.7,9.5l14.3,42.9c1.1,3.1,4,5.1,7.1,5.1c0.8,0,1.6-0.1,2.4-0.4l42.9-14.3
		c3.9-1.3,6.1-5.6,4.7-9.5c-1.3-3.9-5.6-6-9.5-4.7l-26.6,8.9C193.9,40.9,224.2,15,256,15c31,0,60.5,24.4,83.2,68.7
		c7.6,14.8,14,31.2,19.3,48.8c-31.9-7.2-66.6-11-102.5-11c-67.5,0-131.2,13.5-179.1,38c-24,12.3-42.8,26.7-55.8,42.4
		C31,158.2,53.1,118.1,85.6,85.6z M132.5,358.5c-17.6-5.3-34-11.8-48.8-19.3C39.4,316.5,15,287,15,256s24.4-60.5,68.7-83.2
		c14.8-7.6,31.2-14,48.8-19.3c-7.4,32.3-11.1,66.7-11.1,102.5C121.4,291.9,125.3,326.6,132.5,358.5z M256,497
		c-31,0-60.5-24.4-83.2-68.7c-7.6-14.8-14-31.2-19.3-48.8c31.9,7.2,66.6,11,102.5,11c17.7,0,35.3-0.9,52.5-2.8l-16.4,22.9
		c-2.4,3.4-1.6,8.1,1.7,10.5c1.3,0.9,2.8,1.4,4.4,1.4c2.3,0,4.6-1.1,6.1-3.1l26.3-36.8c0.9-1.2,1.4-2.7,1.4-4.1c0-0.5,0-0.9-0.1-1.4
		c-0.4-2.5-1.9-4.5-4-5.6l-35.9-25.7c-3.4-2.4-8.1-1.6-10.5,1.7c-2.4,3.4-1.6,8.1,1.7,10.5l21.1,15.1c-15.9,1.6-32.1,2.4-48.4,2.4
		c-37.8,0-74.1-4.3-107-12.5c-8.2-32.9-12.5-69.3-12.5-107c0-37.6,4.2-73.6,12.6-107c32.9-8.2,69.2-12.5,107-12.5
		c37.8,0,74.2,4.3,107,12.5c8.2,32.9,12.5,69.3,12.5,107c0,39.1-4.6,76.7-13.4,110.5c-0.2,0.5-0.3,1.1-0.4,1.6
		c-5.8,22-13.4,42.3-22.6,60.2C316.5,472.6,287,497,256,497z M426.4,426.4c-32.5,32.5-72.6,54.6-116.3,64.5
		c15.8-13,30.1-31.8,42.4-55.8c9.2-18,16.8-38.1,22.8-59.9c52.8-14.5,92.9-37.6,115.7-65.3C481,353.7,458.9,393.9,426.4,426.4z
		 M462.2,317.4c-20.6,16.9-49,31-82.7,41.1c7.2-31.9,11-66.6,11-102.4c0-35.9-3.8-70.6-11-102.5c17.6,5.3,34,11.8,48.8,19.3
		C472.6,195.5,497,225,497,256C497,277.5,485,298.7,462.2,317.4z"/>
</g>
</svg>
