<?xml version="1.0" encoding="utf-8"?>
<!-- Generator: Adobe Illustrator 24.1.0, SVG Export Plug-In . SVG Version: 6.00 Build 0)  -->
<svg version="1.1" id="Capa_1" xmlns:svgjs="http://svgjs.com/svgjs"
	 xmlns="http://www.w3.org/2000/svg" xmlns:xlink="http://www.w3.org/1999/xlink" x="0px" y="0px" viewBox="0 0 512 512"
	 style="enable-background:new 0 0 512 512;" xml:space="preserve">
<style type="text/css">
	.st0{fill:#132C54;}
</style>
<g>
	<g>
		<path class="st0" d="M296.3,52.6h22.3c10.5,0,20.6,4.2,28,11.6c7.2,7.2,11.6,17.1,11.6,28v19.4c0,4.1-3.4,7.5-7.5,7.5
			s-7.5-3.4-7.5-7.5V92.2c0-6.8-2.8-12.9-7.2-17.4c-4.6-4.6-10.9-7.3-17.4-7.3h-22.3c-1.4,6.3-4.6,12-9.1,16.4
			c-6.1,6.1-14.5,9.9-23.8,9.9h-63.9c-4.1,0-7.5-3.4-7.5-7.5s3.3-7.5,7.5-7.5h63.9c5.2,0,9.8-2.1,13.2-5.5s5.5-8.1,5.5-13.2
			c0-5.2-2.1-9.8-5.5-13.3c-3.4-3.4-8.1-5.5-13.2-5.5h-17c-4.4,0-7.7-1.7-10.1-4.3c-2-2.2-3.1-4.8-3.8-7.7c-1-4.1-3.4-7.7-6.7-10.3
			c-3.2-2.5-7.2-4-11.5-4h-63.8c-4.4,0-8.3,1.5-11.5,3.9c-4.1,3.2-6.2,8.1-6.9,11.2c-1.9,7.7-2.7,11.2-13.6,11.2h-17
			c-5.2,0-9.8,2.1-13.3,5.5c-3.4,3.4-5.5,8.1-5.5,13.3c0,5.1,2.1,9.8,5.5,13.2c3.4,3.4,8.1,5.5,13.3,5.5h63.9c4.1,0,7.5,3.3,7.5,7.5
			s-3.3,7.5-7.5,7.5h-63.9c-9.3,0-17.7-3.8-23.9-9.9c-4.4-4.4-7.6-10.1-9.1-16.4H46.3c-6.8,0-12.9,2.8-17.4,7.3
			c-4.5,4.5-7.3,10.6-7.3,17.4V419c0,4.1-3.3,7.5-7.5,7.5s-7.5-3.3-7.5-7.5V92.2c0-10.9,4.4-20.8,11.7-28c7.5-7.5,17.5-11.6,28-11.6
			h22.3c1.4-6.3,4.6-12,9.1-16.4c6.1-6.1,14.6-9.9,23.9-9.9h16.1c1.8-7.5,5.9-14.2,12.2-19.1c5.8-4.5,13-7.2,20.7-7.2h63.8
			c7.8,0,15,2.7,20.7,7.2c6.4,5,10.2,11.3,12.2,19.1h16.1c9.3,0,17.7,3.8,23.8,9.9C291.7,40.6,294.9,46.3,296.3,52.6L296.3,52.6z
			 M119.2,442.7c1.4,1.4,2.2,3.2,2.2,5.3c0,4.1-3.3,7.5-7.5,7.5c-2.1,0-4-0.9-5.4-2.2l-16.4-16.4l-16.5,16.5
			c-2.9,2.9-7.7,2.9-10.6,0c-2.9-2.9-2.9-7.7,0-10.6l16.5-16.5L65,409.8c-2.9-2.9-2.9-7.7,0-10.6c2.9-2.9,7.7-2.9,10.6,0l16.5,16.5
			l16.5-16.5c2.9-2.9,7.7-2.9,10.6,0c2.9,2.9,2.9,7.7,0,10.6l-16.5,16.5L119.2,442.7z M172.1,418.3c-4.1,0-7.5-3.3-7.5-7.5
			c0-4.1,3.4-7.5,7.5-7.5h134.3c4.2,0,7.5,3.4,7.5,7.5s-3.3,7.5-7.5,7.5H172.1z M172.1,449.3c-4.1,0-7.5-3.4-7.5-7.5
			c0-4.1,3.4-7.5,7.5-7.5h98.2c4.1,0,7.5,3.3,7.5,7.5s-3.3,7.5-7.5,7.5H172.1z M172.1,330.4c-4.1,0-7.5-3.3-7.5-7.5
			c0-4.1,3.4-7.5,7.5-7.5h134.3c4.2,0,7.5,3.4,7.5,7.5s-3.3,7.5-7.5,7.5H172.1z M172.1,361.4c-4.1,0-7.5-3.4-7.5-7.5
			c0-4.1,3.4-7.5,7.5-7.5h98.2c4.1,0,7.5,3.3,7.5,7.5c0,4.1-3.3,7.5-7.5,7.5H172.1z M172.1,242.5c-4.1,0-7.5-3.3-7.5-7.5
			c0-4.1,3.4-7.5,7.5-7.5h134.3c4.2,0,7.5,3.4,7.5,7.5s-3.3,7.5-7.5,7.5H172.1z M172.1,273.5c-4.1,0-7.5-3.4-7.5-7.5
			s3.4-7.5,7.5-7.5h98.2c4.1,0,7.5,3.3,7.5,7.5c0,4.1-3.3,7.5-7.5,7.5H172.1z M172.1,154.7c-4.1,0-7.5-3.3-7.5-7.5s3.4-7.5,7.5-7.5
			h134.3c4.2,0,7.5,3.4,7.5,7.5c0,4.1-3.3,7.5-7.5,7.5H172.1z M172.1,185.7c-4.1,0-7.5-3.3-7.5-7.5c0-4.1,3.4-7.5,7.5-7.5h98.2
			c4.1,0,7.5,3.3,7.5,7.5c0,4.2-3.3,7.5-7.5,7.5H172.1z M119.4,312.3c2.9-2.9,7.7-2.9,10.6,0c2.9,2.9,2.9,7.7,0,10.6l-41.7,41.7
			c-2.9,2.9-7.7,2.9-10.6,0l-23.5-23.5c-2.9-2.9-2.9-7.7,0-10.6c2.9-2.9,7.7-2.9,10.6,0L83,348.7L119.4,312.3z M119.4,224.4
			c2.9-2.9,7.7-2.9,10.6,0c2.9,2.9,2.9,7.7,0,10.6l-41.7,41.7c-2.9,2.9-7.7,2.9-10.6,0l-23.5-23.5c-2.9-2.9-2.9-7.7,0-10.6
			c2.9-2.9,7.7-2.9,10.6,0L83,260.8L119.4,224.4z M119.4,136.5c2.9-2.9,7.7-2.9,10.6,0c2.9,2.9,2.9,7.7,0,10.6l-41.7,41.7
			c-2.9,2.9-7.7,2.9-10.6,0l-23.5-23.5c-2.9-2.9-2.9-7.7,0-10.6c2.9-2.9,7.7-2.9,10.6,0L83,172.9L119.4,136.5z M465.1,179.8v247.4
			h25.3V179.8L465.1,179.8z M450,427.2V179.8h-25.3v106.7c0,4.1-3.3,7.5-7.5,7.5c-4.1,0-7.5-3.3-7.5-7.5c0-54.3,0-108.5,0-162.8
			c0-7.7,3.2-14.8,8.2-19.9c5.1-5.1,12.2-8.2,19.9-8.2h39.3c7.8,0,14.8,3.1,19.9,8.2c5.1,5.1,8.3,12.2,8.3,19.9v311
			c0,1.9-0.5,2.8-1.4,4.3l-39.9,69.1c-2.8,5-10.1,5.1-13,0.1l-39.9-69.1c-0.9-1.6-1.4-2.4-1.4-4.5V320.5c0-4.1,3.3-7.5,7.5-7.5
			c4.2,0,7.5,3.3,7.5,7.5v106.7L450,427.2z M430.2,442.2l27.4,47.4l27.4-47.4H430.2z M477.2,110.6h-39.3c-3.6,0-6.9,1.5-9.3,3.9
			c-2.4,2.4-3.9,5.7-3.9,9.3v41.1h65.6v-41.1c0-3.6-1.5-6.9-3.9-9.3C484.1,112.1,480.8,110.6,477.2,110.6L477.2,110.6z M343.2,145.6
			c0-4.2,3.4-7.5,7.5-7.5s7.5,3.3,7.5,7.5v326.8c0,10.9-4.5,20.8-11.6,28c-7.2,7.2-17.1,11.6-28,11.6H46.3c-10.9,0-20.8-4.5-28-11.6
			c-7.2-7.2-11.6-17.1-11.6-28v-19.4c0-4.1,3.4-7.5,7.5-7.5s7.5,3.3,7.5,7.5v19.4c0,6.8,2.8,13,7.3,17.4c4.5,4.5,10.6,7.3,17.4,7.3
			h272.3c6.8,0,12.9-2.8,17.4-7.3c4.5-4.5,7.2-10.6,7.2-17.4V145.6z"/>
	</g>
</g>
</svg>
