<?xml version="1.0" encoding="utf-8"?>
<!-- Generator: Adobe Illustrator 24.1.0, SVG Export Plug-In . SVG Version: 6.00 Build 0)  -->
<svg version="1.1" id="Capa_1" xmlns:svgjs="http://svgjs.com/svgjs"
	 xmlns="http://www.w3.org/2000/svg" xmlns:xlink="http://www.w3.org/1999/xlink" x="0px" y="0px" viewBox="0 0 512 512"
	 style="enable-background:new 0 0 512 512;" xml:space="preserve">
<style type="text/css">
	.st0{fill:#132C54;}
</style>
<g>
	<path class="st0" d="M465.6,418.4c8.2-7.5,13.4-18.3,13.4-30.2v-16.5c0-22.8-18.5-41.3-41.3-41.3c-19.9,0-36.6,14.2-40.5,33h-27.1
		c-3.4-9.6-12.5-16.5-23.3-16.5c-10.8,0-19.8,6.9-23.3,16.5h-27.1c-3.3-16.2-16-28.9-32.2-32.2v-18.5c14.2-3.7,24.8-16.5,24.8-31.9
		h8.3c4.6,0,8.3-3.7,8.3-8.3v-24.8h16.5v-16.5h-16.5v-0.1c0-15.8,7.5-31.3,20.5-42.6c23.7-20.4,37.3-50,37.3-81.2
		c0-29.5-11.7-57-33-77.4C309.1,9.5,281-1.2,251.6,0.1c-55.7,2.2-101.9,49.5-102.9,105.3c-0.6,31.6,12.7,61.7,36.5,82.6
		c13.1,11.5,20.7,27.2,21.2,43.3h-16.4v16.5h16.5v24.8c0,4.6,3.7,8.3,8.3,8.3h8.3c0,15.4,10.6,28.2,24.8,31.9v18.5
		c-16.2,3.3-28.9,16-32.2,32.2h-27.1c-3.4-9.6-12.5-16.5-23.3-16.5c-10.8,0-19.8,6.9-23.3,16.5h-27.1c-3.8-18.8-20.5-33-40.5-33
		c-22.8,0-41.3,18.5-41.3,41.3v16.5c0,12,5.2,22.7,13.4,30.2C19.3,429.4,0,456.1,0,487.2v16.5c0,4.6,3.7,8.3,8.3,8.3h132.1
		c4.6,0,8.3-3.7,8.3-8.3v-16.5c0-31.1-19.2-57.8-46.4-68.8c8.2-7.5,13.4-18.3,13.4-30.2v-8.3h26.3c3.4,9.6,12.5,16.5,23.3,16.5
		c10.7,0,19.8-6.9,23.3-16.5h26.3v8.3c0,12,5.2,22.7,13.4,30.2c-27.2,11.1-46.4,37.7-46.4,68.8v16.5c0,4.6,3.7,8.3,8.3,8.3h132.1
		c4.6,0,8.3-3.7,8.3-8.3v-16.5c0-31.1-19.2-57.8-46.4-68.8c8.2-7.5,13.4-18.3,13.4-30.2v-8.3h26.3c3.4,9.6,12.5,16.5,23.3,16.5
		c10.7,0,19.8-6.9,23.3-16.5h26.3v8.3c0,12,5.2,22.7,13.4,30.2c-27.2,11.1-46.4,37.7-46.4,68.8v16.5c0,4.6,3.7,8.3,8.3,8.3h132.1
		c4.6,0,8.3-3.7,8.3-8.3v-16.5C512,456.1,492.8,429.4,465.6,418.4z M132.1,487.2v8.3h-16.5V479H99.1v16.5H49.6V479H33v16.5H16.5
		v-8.3c0-31.9,25.9-57.8,57.8-57.8C106.2,429.4,132.1,455.4,132.1,487.2z M49.6,388.1v-16.5c0-13.7,11.1-24.8,24.8-24.8
		c13.7,0,24.8,11.1,24.8,24.8v16.5c0,13.7-11.1,24.8-24.8,24.8C60.7,412.9,49.6,401.8,49.6,388.1z M165.2,379.9
		c-4.6,0-8.3-3.7-8.3-8.3c0-4.6,3.7-8.3,8.3-8.3c4.6,0,8.3,3.7,8.3,8.3C173.4,376.2,169.7,379.9,165.2,379.9z M196.1,175.5
		c-20.1-17.7-31.4-43.1-30.9-69.9c0.9-47.2,39.9-87.2,87.1-89.1c25.2-0.9,48.7,8,66.7,25.2c18,17.3,27.9,40.6,27.9,65.5
		c0,26.4-11.5,51.4-31.5,68.7c-16.7,14.4-26.3,34.5-26.3,55.1v0.1h-66.1C222.4,210.4,212.8,190.2,196.1,175.5z M289,247.7v16.5H223
		v-16.5H289z M239.5,280.8h33c0,9.1-7.4,16.5-16.5,16.5C246.9,297.3,239.5,289.9,239.5,280.8z M313.8,487.2v8.3h-16.5V479h-16.5
		v16.5h-49.5V479h-16.5v16.5h-16.5v-8.3c0-31.9,25.9-57.8,57.8-57.8C287.9,429.4,313.8,455.4,313.8,487.2z M231.2,388.1v-16.5
		c0-13.7,11.1-24.8,24.8-24.8c13.7,0,24.8,11.1,24.8,24.8v16.5c0,13.7-11.1,24.8-24.8,24.8C242.3,412.9,231.2,401.8,231.2,388.1z
		 M346.8,379.9c-4.6,0-8.3-3.7-8.3-8.3c0-4.6,3.7-8.3,8.3-8.3c4.6,0,8.3,3.7,8.3,8.3C355.1,376.2,351.4,379.9,346.8,379.9z
		 M412.9,388.1v-16.5c0-13.7,11.1-24.8,24.8-24.8c13.7,0,24.8,11.1,24.8,24.8v16.5c0,13.7-11.1,24.8-24.8,24.8
		C424,412.9,412.9,401.8,412.9,388.1z M495.5,495.5H479V479h-16.5v16.5h-49.5V479h-16.5v16.5h-16.5v-8.3c0-31.9,25.9-57.8,57.8-57.8
		c31.9,0,57.8,25.9,57.8,57.8V495.5z"/>
	<path class="st0" d="M239.5,198.2h33v16.5h-33V198.2z"/>
	<path class="st0" d="M247.8,147.8v17.4h16.5v-17.4c5.3-1.1,10.1-3.2,14.5-6l12.7,12.7l11.7-11.7l-12.7-12.7c2.9-4.3,5-9.2,6-14.5
		h17.4V99.1h-17.4c-1.1-5.3-3.2-10.1-6-14.5l12.7-12.7l-11.7-11.7L278.7,73c-4.3-2.9-9.2-5-14.5-6V49.6h-16.5v17.4
		c-5.3,1.1-10.1,3.2-14.5,6l-12.7-12.7l-11.7,11.7l12.7,12.7c-2.9,4.3-5,9.2-6,14.5h-17.3v16.5h17.3c1.1,5.3,3.2,10.1,6,14.5
		l-12.7,12.7l11.7,11.7l12.7-12.7C237.6,144.6,242.5,146.7,247.8,147.8z M256,82.6c13.7,0,24.8,11.1,24.8,24.8s-11.1,24.8-24.8,24.8
		c-13.7,0-24.8-11.1-24.8-24.8S242.3,82.6,256,82.6z"/>
</g>
</svg>
