<?xml version="1.0" encoding="utf-8"?>
<!-- Generator: Adobe Illustrator 24.1.0, SVG Export Plug-In . SVG Version: 6.00 Build 0)  -->
<svg version="1.1" id="Capa_1" xmlns:svgjs="http://svgjs.com/svgjs"
	 xmlns="http://www.w3.org/2000/svg" xmlns:xlink="http://www.w3.org/1999/xlink" x="0px" y="0px" viewBox="0 0 512 512"
	 style="enable-background:new 0 0 512 512;" xml:space="preserve">
<style type="text/css">
	.st0{fill:#132C54;}
</style>
<g>
	<g>
		<path class="st0" d="M467,278.1c3.3-15.1,5-30.5,5-46.1c0-30.3-6.4-60.5-18.7-88H472V81l19.4,13.6l9.2-13.1L416,22.2l-41.7,29.2
			C339.1,28.3,298.4,16,256,16c-41.2,0-80.8,11.6-115.3,33.5C127.9,29.4,105.5,16,80,16C40.3,16,8,48.3,8,88
			c0,30.6,19.2,56.7,46.1,67.1C44.8,179.6,40,205.5,40,232c0,19.1,2.5,37.8,7.4,56c-16.3,0-32.4,11.7-37.6,27.2
			c-5.2,15.5,1,31.3,16.9,43.2c31,23.2,39.8,31.4,39.9,31.5l5.5,5l5.4-5c0.1-0.1,4.4-4,17.4-14.2c11.9,13.4,25.4,25.2,40.3,35.3
			C121.5,430.6,112,458,112,496v8h144h144v-8c0-38-9.5-65.3-23.1-85.1c9.7-6.6,18.9-13.9,27.3-21.9C414.5,396,426.8,400,440,400
			c35.3,0,64-28.7,64-64C504,310.4,488.8,288.3,467,278.1L467,278.1z M424,128h-16v-16h16V128z M456,69.8V128h-16V96h-48v32h-16
			V69.8l40-28L456,69.8z M24,88c0-30.9,25.1-56,56-56s56,25.1,56,56s-25.1,56-56,56S24,118.9,24,88z M72,373.5
			c-5.7-4.8-16.6-13.5-35.8-27.9c-10.3-7.8-14.2-16.5-11.3-25.3c3-9.1,12.9-16.3,22.4-16.3c2.9,0.2,11.6,6.7,18.3,13.6l5.6,5.7
			l5.8-5.5c7.3-7,16.6-13.6,19.6-13.8c9.6,0,19.4,7.1,22.5,16.3c2.9,8.8-1,17.6-11.3,25.3C88.6,360,77.7,368.7,72,373.5z M352,488
			v-56h-16v56h-80h-72v-56h-16v56h-39.8c2.8-71.4,43.7-97.2,73.4-106.6l20.1,50.4l34.3-42.9l34.3,42.9l20.2-50.4
			c29.6,9.3,70.5,35.1,73.3,106.7L352,488z M176,286.2c-4-1.9-8-5.9-8-14.2c0-8.2,3.9-12.2,8-14.1V286.2z M161.7,248.7l-7.5-26.2
			c-0.9-3-0.2-6.4,1.6-8.9l12.9-17.2c5.2-6.9,6.6-15.8,3.8-24.1c-1.7-5.2,0.8-10.7,5.7-12.6c15.8-6.1,43.3-12.4,84.9-7.8
			c46.8,5.2,72.4,17.3,83.4,24.1c3.2,1.9,5,5.6,4.6,9.4l-5,60c-3.3-2.1-6.7-3.5-10.2-4.4V216c0-0.9-0.5-22.2-35.6-23.8
			c-1.6-6.8-5.3-12.1-6-13l-12.8,9.6c1.4,1.9,4.8,8.2,3,11.8c-0.9,1.7-5.5,7.4-28.6,7.4c-23,0-27.7-5.6-28.6-7.4
			c-1.8-3.5,1.3-9.5,3-11.9L224,184l-6.4-4.8c-0.7,0.9-4.4,6.1-6,13c-35.1,1.7-35.6,22.9-35.6,23.8v25.1
			C171,242.4,165.9,244.8,161.7,248.7L161.7,248.7z M300,224c-15.6,0-28.8,10.1-33.8,24h-20.4c-5-13.9-18.2-24-33.8-24
			c-7.4,0-14.3,2.3-20,6.1v-13.7c0.4-2.8,5.5-7.8,21.3-8.3c5.6,10.7,19.5,15.9,42.7,15.9s37.1-5.2,42.7-15.9
			c15.9,0.5,21,5.6,21.3,7.9v14.1C314.3,226.3,307.4,224,300,224z M320,260c0,11-9,20-20,20s-20-9-20-20s9-20,20-20S320,249,320,260
			z M232,260c0,11-9,20-20,20s-20-9-20-20s9-20,20-20S232,249,232,260z M336,257.8c4,1.9,8,5.9,8,14.2c0,8.2-3.9,12.2-8,14.1V257.8z
			 M212,296c18.5,0,33.6-14,35.6-32h16.8c2,18,17.1,32,35.6,32c7.4,0,14.3-2.3,20-6.1v13.9c0,0.2-2.3,24.2-64,24.2s-64-24-64-24
			v-14.1C197.7,293.7,204.6,296,212,296L212,296z M283,376.1c2.6,0.1,6.7,0.5,11.8,1.4l-9.1,22.8l-13.6-17
			C275.7,381.6,279.4,379.3,283,376.1L283,376.1z M256,344c5.8,0,11-0.2,16-0.6v21.1c-13.7,11.5-26.7,4-32-0.1v-21
			C245,343.8,250.2,344,256,344z M229.1,376.1c3,2.5,6.8,4.9,11.1,6.9l-13.8,17.3l-9.1-22.8C222.4,376.6,226.5,376.3,229.1,376.1
			L229.1,376.1z M288,360.6v-19.2c47.3-8.6,48-36,48-37.4v-1.1c11.4-2.8,23.6-11.8,23.9-30.2h0l7.2-85.9c0.8-9.9-3.9-19.2-12.2-24.4
			c-14.9-9.1-42.6-21.1-90-26.4c-44.8-5-75,2-92.4,8.8c-12.9,5-19.6,19.3-15.1,32.7c1.1,3.2,0.5,6.7-1.5,9.3L143,204
			c-4.9,6.5-6.5,15.1-4.2,22.9l13.4,46.9c0.8,17.7,12.6,26.4,23.8,29.1v1.1c0,1.4,0.7,28.8,48,37.4v19.2c-15.8,1.8-51.8,9-78.8,37.8
			c-13.9-9.3-26.5-20.2-37.7-32.6c3-2.3,6.2-4.7,9.8-7.4c15.9-11.9,22-27.7,16.9-43.2c-5.2-15.5-21.4-27.2-37.7-27.2
			c-8,0-18,7.2-25,13c-1.4-1.3-3-2.6-4.6-3.9c-7.2-20.9-11-42.8-11-65.2c0-25.2,4.7-49.6,13.7-72.8c3.4,0.5,6.8,0.8,10.3,0.8
			c39.7,0,72-32.3,72-72c0-8.4-1.5-16.5-4.2-24C180,43.1,217.2,32,256,32c37.1,0,72.9,10.1,104.2,29.3l-28.8,20.1l9.2,13.1L360,81
			v63h75.6c13.3,27.2,20.4,57.5,20.4,88c0,13.9-1.5,27.7-4.3,41.1c-3.8-0.7-7.7-1.1-11.7-1.1c-35.3,0-64,28.7-64,64
			c0,16.2,6.1,31,16.1,42.3c-7.9,7.4-16.4,14-25.4,20C339.8,369.5,303.8,362.4,288,360.6z M440,384c-26.5,0-48-21.5-48-48
			s21.5-48,48-48s48,21.5,48,48S466.5,384,440,384z"/>
		<path class="st0" d="M284.4,310.7l-8.9-13.3c-19.1,12.7-38.3,0.5-39.2,0l-8.8,13.3c0.8,0.5,13,8.5,29.4,8.5
			C265.4,319.2,274.9,317,284.4,310.7z"/>
		<path class="st0" d="M448,312h-16v16h-16v16h16v16h16v-16h16v-16h-16V312z"/>
		<path class="st0" d="M88,136v-16h24V80H64v-8h48V56H88V40H72v16H48v40h48v8H48v16h24v16H88z"/>
	</g>
</g>
</svg>
