<?xml version="1.0"?>
<svg xmlns="http://www.w3.org/2000/svg" height="512px" viewBox="0 0 60 60" width="512px" class=""><g><g id="Page-1" fill="none" fill-rule="evenodd"><g id="037---Sprinkler" fill="rgb(0,0,0)" fill-rule="nonzero" transform="translate(0 -1)"><path id="Shape" d="m59 51h-1.923c.9263148-.6725294 1.5938164-1.6425423 1.891-2.748.0749424-.3035633.0050617-.62472-.1892385-.8696986-.1943001-.2449786-.491108-.3861524-.8037615-.3823014h-.883c-1.6112483-.0014273-3.1284106.7586369-4.092 2.05v-6.05h1.037c2.302935.0119728 4.3261797-1.5258737 4.931-3.748.0749424-.3035633.0050617-.62472-.1892385-.8696986-.1943001-.2449786-.491108-.3861524-.8037615-.3823014h-.883c-1.6112483-.0014273-3.1284106.7586369-4.092 2.05v-7.05c0-.5522847-.4477153-1-1-1s-1 .4477153-1 1v7.05c-.9635894-1.2913631-2.4807517-2.0514273-4.092-2.05h-.883c-.3126535-.003851-.6094614.1373228-.8037615.3823014-.1943002.2449786-.2641809.5661353-.1892385.8696986.6048203 2.2221263 2.628065 3.7599728 4.931 3.748h1.037v6.05c-.9635894-1.2913631-2.4807517-2.0514273-4.092-2.05h-.883c-.3126535-.003851-.6094614.1373228-.8037615.3823014-.1943002.2449786-.2641809.5661353-.1892385.8696986.2971836 1.1054577.9646852 2.0754706 1.891 2.748h-14.923v-18h-4v18h-14.923c.9263148-.6725294 1.5938164-1.6425423 1.891-2.748.0749424-.3035633.0050617-.62472-.1892385-.8696986-.1943001-.2449786-.491108-.3861524-.8037615-.3823014h-.883c-1.6112483-.0014273-3.12841058.7586369-4.092 2.05v-6.05h1.037c2.302935.0119728 4.3261797-1.5258737 4.931-3.748.0749424-.3035633.0050617-.62472-.1892385-.8696986-.1943001-.2449786-.491108-.3861524-.8037615-.3823014h-.883c-1.6112483-.0014273-3.12841058.7586369-4.092 2.05v-7.05c0-.5522847-.44771525-1-1-1s-1 .4477153-1 1v7.05c-.96358942-1.2913631-2.4807517-2.0514273-4.092-2.05h-.883c-.31265352-.003851-.60946141.1373228-.80376153.3823014s-.26418089.5661353-.18923847.8696986c.60482029 2.2221263 2.62806504 3.7599728 4.931 3.748h1.037v6.05c-.96358942-1.2913631-2.4807517-2.0514273-4.092-2.05h-.883c-.31265352-.003851-.60946141.1373228-.80376153.3823014s-.26418089.5661353-.18923847.8696986c.29718364 1.1054577.96468519 2.0754706 1.891 2.748h-1.923c-.55228475 0-1 .4477153-1 1s.44771525 1 1 1h16.2l-4.044 6.47c-.2927109.469442-.149442 1.0872891.32 1.38s1.0872891.149442 1.38-.32l4.698-7.53h20.892l4.706 7.53c.1893508.3036758.5263272.4832663.8839935.4711216s.6816844-.2141796.85-.53c.1683155-.3158205.1553573-.6974458-.0339935-1.0011216l-4.052-6.47h16.2c.5522847 0 1-.4477153 1-1s-.4477153-1-1-1z" data-original="#000000" class="active-path" data-old_color="#000000" fill="#799733"/><path id="Rectangle-path" d="m26 20h8v3h-8z" data-original="#000000" class="active-path" data-old_color="#000000" fill="#799733"/><path id="Shape" d="m26 26.53c-.0006263.3090143.0713035.6138597.21.89l1.79 3.58h4l1.79-3.58c.1386965-.2761403.2106263-.5809857.21-.89l.0000041-1.53h-8.0000082z" data-original="#000000" class="active-path" data-old_color="#000000" fill="#799733"/><path id="Shape" d="m23 16c0 1.1045695.8954305 2 2 2h10c1.1045695 0 2-.8954305 2-2s-.8954305-2-2-2h-10c-1.1045695 0-2 .8954305-2 2z" data-original="#000000" class="active-path" data-old_color="#000000" fill="#799733"/><path id="Shape" d="m26.373 10.329c.1817017.5216329.7518671.7972016 1.2735.6155.5216329-.1817017.7972017-.7518671.6155-1.2735-.1333333-.376-.2793333-.74266667-.438-1.1-.1387771-.33727952-.4501702-.57225795-.8125818-.61317724s-.7183593.11871078-.9288472.41655538c-.2104879.29784459-.2421303.68666244-.082571 1.01462186.138.306.2623333.6193333.373.94z" data-original="#000000" class="active-path" data-old_color="#000000" fill="#799733"/><path id="Shape" d="m22.329 11.005c.1924973.5086142.7561611.7701598 1.2688353.588752s.7863975-.7392596.6161647-1.255752c-.091-.258-.193-.509-.306-.756-.1427544-.33490666-.4562398-.56577057-.818422-.60272068-.3621823-.03695012-.7158298.12585237-.9232742.42503148-.2074443.2991791-.2359054.6874589-.0743038 1.0136892.088.191.166.387.237.587z" data-original="#000000" class="active-path" data-old_color="#000000" fill="#799733"/><path id="Shape" d="m23.269 5.637c.2632717.25285099.6434006.34216192.9917257.23300504s.6094991-.39943702.6813819-.75731753c.0718828-.35788052-.0569473-.72649576-.3361076-.96168751-.324-.292-.662-.56766667-1.014-.827-.4454177-.32695257-1.0715474-.23091765-1.3985.2145s-.2309177 1.07154743.2145 1.3985c.2985389.21877061.585901.45239829.861.7z" data-original="#000000" class="active-path" data-old_color="#000000" fill="#799733"/><path id="Shape" d="m17.831 2.986c.31.053.614.119.914.2.0832781.02144275.1690099.03186505.255.031.5026698.00011246.9273002-.37293845.991925-.87143676.0646249-.49849832-.2508433-.9674949-.736925-1.09556324-.355-.094-.718-.172-1.086-.236-.3522639-.06037788-.7099803.07176119-.938401.34664171-.2284208.27488052-.2928432.65074159-.169.986.1238431.3352584.4171371.57898041.769401.63935829z" data-original="#000000" class="active-path" data-old_color="#000000" fill="#799733"/><path id="Shape" d="m17.176 7.1c.2.032.388.073.579.122.08006.02037073.1623903.03045199.245.03.5041334-.00003061.9294139-.37531808.9921628-.87553113s-.2566575-.9689173-.7451628-1.09346887c-.245-.063-.492-.116-.745-.158-.5448289-.09112698-1.060373.27667109-1.1515.8215s.2766711 1.06037302.8215 1.1515z" data-original="#000000" class="active-path" data-old_color="#000000" fill="#799733"/><path id="Shape" d="m13 3.217c.0863809-.00020069.1723921-.01128806.256-.033.3-.079.6-.145.914-.2.5286477-.1086713.8756878-.61722303.7841605-1.14910707-.0915272-.53188403-.588596-.89518049-1.1231605-.82089293-.368.064-.729.142-1.086.236-.4860817.12806834-.8015499.59706492-.736925 1.09556324.0646248.49849831.4892552.87154922.991925.87143676z" data-original="#000000" class="active-path" data-old_color="#000000" fill="#799733"/><path id="Shape" d="m8.062 5.894c.24723438.00069367.48581752-.09095935.669-.257.27509902-.24760171.56246106-.48122939.861-.7.4454177-.32695257.5414526-.95308235.2145-1.3985-.32695257-.44541765-.95308235-.54145257-1.3985-.2145-.352.25933333-.69.535-1.014.827-.30740611.27690949-.41254446.71453139-.26448248 1.10086678.14806198.38633538.51874694.6415993.93248248.64213322z" data-original="#000000" class="active-path" data-old_color="#000000" fill="#799733"/><path id="Shape" d="m9.96 8.66c.1753802.1991434.4227215.32041407.6875566.33710694.2648352.01669286.5254461-.07256099.7244434-.24810694.174-.154.356-.3.544-.436.2981388-.20550448.4618915-.55612558.4281084-.91664953s-.2598234-.67461931-.5909505-.82115812c-.3311272-.1465388-.715603-.10262455-1.0051579.11480765-.2426667.17533333-.476.36166667-.7.559-.41375828.36542398-.45314772.9969979-.088 1.411z" data-original="#000000" class="active-path" data-old_color="#000000" fill="#799733"/><path id="Shape" d="m4.678 9.891c.50368508.2263901 1.09553128.00164976 1.322-.502.14466667-.322.30333333-.635.476-.939.17595331-.3109997.17262451-.69224524-.00873248-1.00012512-.18135698-.30787988-.51318971-.49561983-.87050001-.49250001-.35731029.00311982-.68581421.19662543-.86176751.50762513-.2.358-.38633333.72466667-.559 1.1-.10997859.24231743-.11883985.5184761-.02462226.76734568.0942176.24886959.28374274.44992269.52662226.55865432z" data-original="#000000" class="active-path" data-old_color="#000000" fill="#799733"/><path id="Shape" d="m4 15c.55228475 0 1-.4477153 1-1 0-.309.013-.615.037-.917.04235-.3626961-.11636336-.719639-.41403133-.9311473s-.6869567-.2439491-1.01552718-.0846273c-.32857049.1593218-.54417489.4850715-.56244149.8497746-.03.3566667-.045.7176667-.045 1.083 0 .5522847.44771525 1 1 1z" data-original="#000000" class="active-path" data-old_color="#000000" fill="#799733"/><path id="Shape" d="m8 15c.55228475 0 1-.4477153 1-1 0-.2.008-.393.023-.585.04168621-.3621409-.11699033-.7182758-.41412092-.9294562-.29713059-.2111805-.68563633-.2439461-1.01393915-.085513-.32830281.1584331-.54438472.4829618-.56393993.8469692-.02066667.248-.031.499-.031.753 0 .5522847.44771525 1 1 1z" data-original="#000000" class="active-path" data-old_color="#000000" fill="#799733"/><path id="Shape" d="m37.418 9.091c-.5017543-.23048288-1.0953558-.01068022-1.326.491-.113.247-.215.5-.306.756-.128294.3389771-.0631283.7208385.1703255.9980823.2334538.2772439.5986473.4064662.9545169.3377522s.6467022-.3246068.7601576-.6688345c.071-.2.149-.4.237-.587.1110638-.2409396.1218308-.51613884.0299307-.76501924-.0919001-.24888041-.278934-.4510409-.5199307-.56198076z" data-original="#000000" class="active-path" data-old_color="#000000" fill="#799733"/><path id="Shape" d="m41.749 5.283c-.4892594.12472721-.8087897.59460601-.7449428 1.09546046.0638468.50085446.4910393.87554412.9959428.87353954.0840343.00014185.1677322-.01061451.249-.032.191-.049.383-.09.579-.122.3524425-.05894882.646664-.30144561.7718341-.63614419s.0622724-.71075026-.165-.98650001c-.2272725-.27574975-.5843916-.40930463-.9368341-.3503558-.257.042-.504.095-.749.158z" data-original="#000000" class="active-path" data-old_color="#000000" fill="#799733"/><path id="Shape" d="m48.084 8.313c.188.137.37.282.544.436.4142136.3656125 1.0463875.32621356 1.412-.088s.3262136-1.0463875-.088-1.412c-.224-.2-.4573333-.38633333-.7-.559-.2895549-.2174322-.6740307-.26134645-1.0051579-.11480765-.3311271.14653881-.5571674.46063417-.5909505.82115812s.1299696.71114505.4281084.91664953z" data-original="#000000" class="active-path" data-old_color="#000000" fill="#799733"/><path id="Shape" d="m51.889 12.334c-.2642961.0223912-.5088694.1488667-.6799066.3515982-.1710371.2027316-.2545249.4651091-.2320934.7294018.015.192.023.388.023.585 0 .5522847.4477153 1 1 1s1-.4477153 1-1c0-.254-.0103333-.505-.031-.753-.0461199-.5503496-.5296497-.9591114-1.08-.913z" data-original="#000000" class="active-path" data-old_color="#000000" fill="#799733"/><path id="Shape" d="m32.354 10.944c.5213461.1815159 1.0911594-.0937671 1.273-.615.1106667-.3213333.235-.63466667.373-.94.2182034-.50204436-.0078095-1.08622243-.5070893-1.31067938-.4992799-.22445694-1.0862353-.00575805-1.3169107.49067938-.1613333.35933333-.3073333.726-.438 1.1-.0877415.25074869-.0721031.5261049.0434644.765307.1155674.2392021.3215648.4225888.5725356.509693z" data-original="#000000" class="active-path" data-old_color="#000000" fill="#799733"/><path id="Shape" d="m36.062 5.894c.2472344.00069367.4858175-.09095935.669-.257.275099-.24760171.5624611-.48122939.861-.7.4454176-.32695258.5414525-.95308233.2145-1.39849997-.3269526-.44541763-.9530823-.54145256-1.3985-.21450003-.352.25933333-.69.535-1.014.827-.3074061.27690949-.4125445.71453139-.2644825 1.10086678.148062.38633538.518747.6415993.9324825.64213322z" data-original="#000000" class="active-path" data-old_color="#000000" fill="#799733"/><path id="Shape" d="m41 3.217c.0863809-.00020069.1723921-.01128806.256-.033.3-.079.6-.145.914-.2.5286477-.1086713.8756878-.61722303.7841605-1.14910707-.0915272-.53188403-.588596-.89518049-1.1231605-.82089293-.368.064-.729.142-1.086.236-.4860817.12806834-.8015499.59706492-.736925 1.09556324.0646248.49849831.4892552.87154922.991925.87143676z" data-original="#000000" class="active-path" data-old_color="#000000" fill="#799733"/><path id="Shape" d="m45.831 2.986c.31.053.614.119.914.2.0832781.02144275.1690099.03186505.255.031.5026698.00011246.9273002-.37293845.991925-.87143676.0646249-.49849832-.2508433-.9674949-.736925-1.09556324-.355-.094-.718-.172-1.086-.236-.5445528-.09333611-1.0616639.27244724-1.155.817s.2724472 1.06166387.817 1.155z" data-original="#000000" class="active-path" data-old_color="#000000" fill="#799733"/><path id="Shape" d="m51.269 5.637c.2632717.25285099.6434006.34216192.9917257.23300504s.6094991-.39943702.6813819-.75731753c.0718828-.35788052-.0569473-.72649576-.3361076-.96168751-.324-.292-.662-.56766667-1.014-.827-.4454177-.32695257-1.0715474-.23091765-1.3985.2145s-.2309177 1.07154743.2145 1.3985c.2985389.21877061.585901.45239829.861.7z" data-original="#000000" class="active-path" data-old_color="#000000" fill="#799733"/><path id="Shape" d="m54 9.389c.1466575.32582624.4560009.54866125.8115034.58456522.3555026.03590398.703155-.12057775.9120001-.41050001.208845-.28992227.247154-.66923899.1004965-.99506521-.17-.378-.3563333-.74466667-.559-1.1-.2720002-.48076387-.8822361-.65000024-1.363-.378s-.6500002.88223613-.378 1.363c.172.302.3306667.614.476.936z" data-original="#000000" class="active-path" data-old_color="#000000" fill="#799733"/><path id="Shape" d="m54.963 13.083c.024.3.037.608.037.917 0 .5522847.4477153 1 1 1s1-.4477153 1-1c0-.3646667-.015-.7256667-.045-1.083-.0182666-.3647031-.233871-.6904528-.5624415-.8497746s-.7178592-.126881-1.0155272.0846273c-.2976679.2115083-.4563813.5684512-.4140313.9311473z" data-original="#000000" class="active-path" data-old_color="#000000" fill="#799733"/><path id="Shape" d="m18.965 11.134c-.4779053.2764929-.6412972.8879815-.365 1.366.1353033.2351997.2385514.4874345.307.75.1138833.4410697.5114656.7494324.967.75.0846924.0001354.1690507-.0106194.251-.032.5345261-.1381848.8559304-.6834082.718-1.218-.113082-.437838-.2849796-.8583312-.511-1.25-.1326158-.2299444-.3512138-.3977275-.607628-.4663798-.2564142-.0686522-.5296031-.0325399-.759372.1003798z" data-original="#000000" class="active-path" data-old_color="#000000" fill="#799733"/><path id="Shape" d="m14.031 10.375c.1135926.4418268.5118047.7507703.968.751.084291-.0000146.1682583-.0104266.25-.031.2453341-.0631651.497665-.0950844.751-.095.5522847 0 1-.4477153 1-1 0-.55228475-.4477153-1-1-1-.4212533.0000141-.8408483.05275743-1.249.157-.2570644.06592501-.4773816.23132867-.6124277.45978167-.1350461.22845301-.1737446.50121743-.1075723.75821833z" data-original="#000000" class="active-path" data-old_color="#000000" fill="#799733"/><path id="Shape" d="m13.1 13.249c.1380712-.5351639-.1838361-1.0809288-.719-1.219-.5351639-.1380711-1.0809288.1838361-1.219.719-.1059809.4086081-.1604039.8288744-.162 1.251 0 .5522847.4477153 1 1 1s1-.4477153 1-1c.0015482-.2535475.035148-.5058818.1-.751z" data-original="#000000" class="active-path" data-old_color="#000000" fill="#799733"/><path id="Shape" d="m39.876 13.968c.0819493.0213806.1663076.0321354.251.032.4555344-.0005676.8531167-.3089303.967-.75.0684486-.2625655.1716967-.5148003.307-.75.2716903-.47786.1067416-1.0854205-.3693057-1.3602745-.4760473-.2748541-1.0846885-.1139391-1.3626943.3602745-.2260204.3916688-.397918.812162-.511 1.25-.1379304.5345918.1834739 1.0798152.718 1.218z" data-original="#000000" class="active-path" data-old_color="#000000" fill="#799733"/><path id="Shape" d="m43 10c0 .5522847.4477153 1 1 1 .2535475.0015482.5058818.035148.751.1.0817417.0205734.165709.0309854.25.031.5043244.0004746.9300793-.3746633.9931022-.8750346s-.2564114-.96936747-.7451022-1.0939654c-.407938-.10592892-.8275363-.16035241-1.249-.162-.2652165 0-.5195704.10535684-.7071068.29289322s-.2928932.44189029-.2928932.70710678z" data-original="#000000" class="active-path" data-old_color="#000000" fill="#799733"/><path id="Shape" d="m48.843 12.751c-.0893164-.3461904-.3565385-.6184337-.7010064-.7141786-.3444678-.0957449-.7138485-.0004455-.969.25-.2551514.2504454-.35731.6179882-.2679936.9641786.0629982.2446859.0949162.4963343.095.749 0 .5522847.4477153 1 1 1s1-.4477153 1-1c-.0001292-.4212461-.0528707-.8408268-.157-1.249z" data-original="#000000" class="active-path" data-old_color="#000000" fill="#799733"/><path id="Shape" d="m4 20c.55228475 0 1-.4477153 1-1v-1c0-.5522847-.44771525-1-1-1s-1 .4477153-1 1v1c0 .5522847.44771525 1 1 1z" data-original="#000000" class="active-path" data-old_color="#000000" fill="#799733"/><path id="Shape" d="m8 20c.55228475 0 1-.4477153 1-1v-1c0-.5522847-.44771525-1-1-1s-1 .4477153-1 1v1c0 .5522847.44771525 1 1 1z" data-original="#000000" class="active-path" data-old_color="#000000" fill="#799733"/><path id="Shape" d="m13 18c0-.5522847-.4477153-1-1-1s-1 .4477153-1 1v1c0 .5522847.4477153 1 1 1s1-.4477153 1-1z" data-original="#000000" class="active-path" data-old_color="#000000" fill="#799733"/><path id="Shape" d="m49 18c0-.5522847-.4477153-1-1-1s-1 .4477153-1 1v1c0 .5522847.4477153 1 1 1s1-.4477153 1-1z" data-original="#000000" class="active-path" data-old_color="#000000" fill="#799733"/><path id="Shape" d="m53 18c0-.5522847-.4477153-1-1-1s-1 .4477153-1 1v1c0 .5522847.4477153 1 1 1s1-.4477153 1-1z" data-original="#000000" class="active-path" data-old_color="#000000" fill="#799733"/><path id="Shape" d="m57 18c0-.5522847-.4477153-1-1-1s-1 .4477153-1 1v1c0 .5522847.4477153 1 1 1s1-.4477153 1-1z" data-original="#000000" class="active-path" data-old_color="#000000" fill="#799733"/><path id="Shape" d="m4 25c.55228475 0 1-.4477153 1-1v-1c0-.5522847-.44771525-1-1-1s-1 .4477153-1 1v1c0 .5522847.44771525 1 1 1z" data-original="#000000" class="active-path" data-old_color="#000000" fill="#799733"/><path id="Shape" d="m8 25c.55228475 0 1-.4477153 1-1v-1c0-.5522847-.44771525-1-1-1s-1 .4477153-1 1v1c0 .5522847.44771525 1 1 1z" data-original="#000000" class="active-path" data-old_color="#000000" fill="#799733"/><path id="Shape" d="m13 23c0-.5522847-.4477153-1-1-1s-1 .4477153-1 1v1c0 .5522847.4477153 1 1 1s1-.4477153 1-1z" data-original="#000000" class="active-path" data-old_color="#000000" fill="#799733"/><path id="Shape" d="m49 23c0-.5522847-.4477153-1-1-1s-1 .4477153-1 1v1c0 .5522847.4477153 1 1 1s1-.4477153 1-1z" data-original="#000000" class="active-path" data-old_color="#000000" fill="#799733"/><path id="Shape" d="m53 23c0-.5522847-.4477153-1-1-1s-1 .4477153-1 1v1c0 .5522847.4477153 1 1 1s1-.4477153 1-1z" data-original="#000000" class="active-path" data-old_color="#000000" fill="#799733"/><path id="Shape" d="m57 23c0-.5522847-.4477153-1-1-1s-1 .4477153-1 1v1c0 .5522847.4477153 1 1 1s1-.4477153 1-1z" data-original="#000000" class="active-path" data-old_color="#000000" fill="#799733"/><path id="Shape" d="m4 30c.55228475 0 1-.4477153 1-1v-1c0-.5522847-.44771525-1-1-1s-1 .4477153-1 1v1c0 .5522847.44771525 1 1 1z" data-original="#000000" class="active-path" data-old_color="#000000" fill="#799733"/><path id="Shape" d="m8 30c.55228475 0 1-.4477153 1-1v-1c0-.5522847-.44771525-1-1-1s-1 .4477153-1 1v1c0 .5522847.44771525 1 1 1z" data-original="#000000" class="active-path" data-old_color="#000000" fill="#799733"/><path id="Shape" d="m12 27c-.5522847 0-1 .4477153-1 1v1c0 .5522847.4477153 1 1 1s1-.4477153 1-1v-1c0-.5522847-.4477153-1-1-1z" data-original="#000000" class="active-path" data-old_color="#000000" fill="#799733"/><path id="Shape" d="m48 27c-.5522847 0-1 .4477153-1 1v1c0 .5522847.4477153 1 1 1s1-.4477153 1-1v-1c0-.5522847-.4477153-1-1-1z" data-original="#000000" class="active-path" data-old_color="#000000" fill="#799733"/><path id="Shape" d="m52 27c-.5522847 0-1 .4477153-1 1v1c0 .5522847.4477153 1 1 1s1-.4477153 1-1v-1c0-.5522847-.4477153-1-1-1z" data-original="#000000" class="active-path" data-old_color="#000000" fill="#799733"/><path id="Shape" d="m56 27c-.5522847 0-1 .4477153-1 1v1c0 .5522847.4477153 1 1 1s1-.4477153 1-1v-1c0-.5522847-.4477153-1-1-1z" data-original="#000000" class="active-path" data-old_color="#000000" fill="#799733"/></g></g></g> </svg>
