<?xml version="1.0"?>
<svg xmlns="http://www.w3.org/2000/svg" width="512px" height="512px" viewBox="0 0 128 128"><g><g><path d="M53.241,77.686a1.75,1.75,0,0,0-3.5,0,22.944,22.944,0,0,0,1.278,7.578,1.75,1.75,0,0,0,3.3-1.152A19.493,19.493,0,0,1,53.241,77.686Z" data-original="#000000" class="active-path" data-old_color="#000000" fill="#212121"/><path d="M103.808,119.75H99.556a12.463,12.463,0,0,0-7.134-9.619,15.716,15.716,0,0,0-9.951-8.715A14.109,14.109,0,0,0,78,95.638,28.842,28.842,0,0,0,84.26,77.69V64a1.75,1.75,0,0,0-1.75-1.75H68.75V21.483a7.752,7.752,0,0,0,5.984-7.233H76.25A1.75,1.75,0,0,0,78,12.5v-6a1.75,1.75,0,0,0-1.75-1.75H51.75A1.751,1.751,0,0,0,50,6.5v6a1.751,1.751,0,0,0,1.75,1.75h1.516a7.752,7.752,0,0,0,5.984,7.233V62.25H45.49A1.751,1.751,0,0,0,43.74,64V77.69a28.772,28.772,0,0,0,8.608,20.573,12.417,12.417,0,0,0-4.128,3.925,10.864,10.864,0,0,0-3.106-.45,11.057,11.057,0,0,0-10.285,7.134,12.594,12.594,0,0,0-6.5,10.878H24.192a1.75,1.75,0,0,0,0,3.5h79.616a1.75,1.75,0,0,0,0-3.5ZM62.75,21.69h2.5V69.67a1.25,1.25,0,1,1-2.5,0ZM53.5,8.25h21v2.5h-21Zm3.281,6H71.219A4.242,4.242,0,0,1,67,18.19H61A4.243,4.243,0,0,1,56.781,14.25ZM47.24,77.69V65.75H59.25v3.92a4.75,4.75,0,1,0,9.5,0V65.75H80.76V77.69a25.344,25.344,0,0,1-5.842,16.166A14.01,14.01,0,0,0,59.826,96.59a11.124,11.124,0,0,0-1.14-.059,12.575,12.575,0,0,0-2.721.313A25.3,25.3,0,0,1,47.24,77.69ZM31.822,119.75a9.081,9.081,0,0,1,5.186-8.063,1.75,1.75,0,0,0,.929-1.085,7.533,7.533,0,0,1,7.177-5.364,7.4,7.4,0,0,1,3.149.7,1.75,1.75,0,0,0,2.313-.82,8.96,8.96,0,0,1,8.11-5.088,8.625,8.625,0,0,1,1.469.135,1.746,1.746,0,0,0,1.575-.53,10.57,10.57,0,0,1,17.77,3.81,1.749,1.749,0,0,0,1.269,1.142,12.219,12.219,0,0,1,8.68,7.507,1.746,1.746,0,0,0,.989.992,9,9,0,0,1,5.573,6.663Z" data-original="#000000" class="active-path" data-old_color="#000000" fill="#212121"/><path d="M69.021,103.313a5.854,5.854,0,0,0-4.264,1.859,1.75,1.75,0,1,0,2.558,2.389,2.326,2.326,0,0,1,3.914.838,1.752,1.752,0,0,0,1.657,1.186,1.751,1.751,0,0,0,1.656-2.314A5.834,5.834,0,0,0,69.021,103.313Z" data-original="#000000" class="active-path" data-old_color="#000000" fill="#212121"/><path d="M54.805,110.005a5.719,5.719,0,0,0-2.43-.54,5.8,5.8,0,0,0-5.532,4.133,1.75,1.75,0,1,0,3.357.993,2.282,2.282,0,0,1,2.175-1.626,2.245,2.245,0,0,1,.953.213,1.75,1.75,0,0,0,1.477-3.173Z" data-original="#000000" class="active-path" data-old_color="#000000" fill="#212121"/></g></g> </svg>
