<?xml version="1.0"?>
<svg xmlns="http://www.w3.org/2000/svg" viewBox="0 0 512 512" width="512px" height="512px"><g><g id="Out_line" data-name="Out line"><path d="M368,120H144A128.14509,128.14509,0,0,0,16,248V384a8.00008,8.00008,0,0,0,8,8H488a8.00008,8.00008,0,0,0,8-8V248A128.14509,128.14509,0,0,0,368,120Zm0,16a112.18219,112.18219,0,0,1,104.60986,72H377.5918a128.655,128.655,0,0,0-59.68555-72Zm-112,0a112.18219,112.18219,0,0,1,104.60986,72H265.5918a128.655,128.655,0,0,0-59.68555-72ZM368,248V376H272V248a128.15164,128.15164,0,0,0-2.26636-24h95.669A111.97442,111.97442,0,0,1,368,248ZM224,169.70264A112.28465,112.28465,0,0,1,248.60986,208H224Zm-16-13.56128V208H80V156.14136a111.752,111.752,0,0,1,128,0ZM168,376H120V256h48Zm8-136H112a8.00008,8.00008,0,0,0-8,8V376H80V224H208V376H184V248A8.00008,8.00008,0,0,0,176,240ZM64,169.70264V208H39.39014A112.28465,112.28465,0,0,1,64,169.70264ZM32,248a111.97442,111.97442,0,0,1,2.59741-24H64V376H32ZM256,376H224V224h29.40259A111.97442,111.97442,0,0,1,256,248Zm224,0H384V248a128.15164,128.15164,0,0,0-2.26636-24h95.669A111.97442,111.97442,0,0,1,480,248Z" data-original="#000000" class="active-path" data-old_color="#000000" fill="#212121"/><path d="M296,336h48a8.00008,8.00008,0,0,0,8-8V280a8.00008,8.00008,0,0,0-8-8H296a8.00008,8.00008,0,0,0-8,8v48A8.00008,8.00008,0,0,0,296,336Zm8-48h32v32H304Z" data-original="#000000" class="active-path" data-old_color="#000000" fill="#212121"/><path d="M456,272H408a8.00008,8.00008,0,0,0-8,8v48a8.00008,8.00008,0,0,0,8,8h48a8.00008,8.00008,0,0,0,8-8V280A8.00008,8.00008,0,0,0,456,272Zm-8,48H416V288h32Z" data-original="#000000" class="active-path" data-old_color="#000000" fill="#212121"/></g></g> </svg>
