<?xml version="1.0" encoding="utf-8"?>
<!-- Generator: Adobe Illustrator 24.1.0, SVG Export Plug-In . SVG Version: 6.00 Build 0)  -->
<svg version="1.1" id="Capa_1" xmlns:svgjs="http://svgjs.com/svgjs"
	 xmlns="http://www.w3.org/2000/svg" xmlns:xlink="http://www.w3.org/1999/xlink" x="0px" y="0px" viewBox="0 0 512 512"
	 style="enable-background:new 0 0 512 512;" xml:space="preserve">
<style type="text/css">
	.st0{fill:#132C54;}
</style>
<g>
	<path class="st0" d="M480,168h-72V8H200v64h-96v96H32c-13.2,0-24,10.8-24,24v128c0,10.4,6.7,19.2,16,22.5V480c0,13.2,10.8,24,24,24
		h416c13.2,0,24-10.8,24-24V342.5c9.3-3.3,16-12.1,16-22.5V192C504,178.8,493.2,168,480,168z M104,280H88v-48h16V280z M392,280
		l-80-106.7v-26.7L392,40V280z M312,120V72h-44.4l-42-48H384L312,120z M288,88l-73.1,97.5L129.6,88L288,88z M207.4,201.2
		c5.5,6.3,8.6,14.4,8.6,22.8s-3,16.5-8.6,22.8L178.4,280H120V101.3L207.4,201.2z M214.9,262.5L228,280h-28.4L214.9,262.5z M248,280
		l-22.9-30.6c4.5-7.7,6.9-16.4,6.9-25.4s-2.4-17.8-6.9-25.4L296,104v176H248z M312,200l60,80h-60V200z M408,232h16v48h-16V232z
		 M216,37.3L246.4,72H216V37.3z M424,488H88v-96h336V488z M464,488h-24V376H72v112H48c-4.4,0-8-3.6-8-8V344h432v136
		C472,484.4,468.4,488,464,488z M488,320c0,4.4-3.6,8-8,8H32c-4.4,0-8-3.6-8-8V192c0-4.4,3.6-8,8-8h72v32H72v80h368v-80h-32v-32h72
		c4.4,0,8,3.6,8,8V320z"/>
</g>
</svg>
